<svg width="191" height="64" viewBox="0 0 191 64" fill="none" xmlns="http://www.w3.org/2000/svg">
<path d="M18.1289 58.8315C13.2392 58.8315 9.4979 57.7757 6.9049 55.6643C4.34896 53.5529 2.68203 51.1821 1.90413 48.5521C1.12624 45.9591 0.737288 43.5143 0.737288 41.2176C0.737288 38.4765 1.20032 36.2169 2.12639 34.4388C3.0895 32.6608 4.42304 31.7717 6.12701 31.7717C6.94195 31.7717 7.6828 31.957 8.34957 32.3274C9.01634 32.6608 9.51642 33.0682 9.8498 33.5498C8.84965 34.4759 8.09027 35.5316 7.57167 36.717C7.09012 37.8653 6.84934 39.4766 6.84934 41.551C6.84934 44.144 7.25681 46.311 8.07175 48.052C8.92373 49.793 10.2017 51.0895 11.9057 51.9415C13.6467 52.8305 15.8322 53.2751 18.4622 53.2751C21.1664 53.2751 23.3704 52.7565 25.0744 51.7193C26.8154 50.7191 28.2415 48.9966 29.3528 46.5518C30.4641 44.107 31.4087 40.662 32.1866 36.2169L35.2426 18.6586L36.3539 20.5478L32.6866 16.2694C33.5757 15.5655 34.5944 15.0099 35.7427 14.6024C36.928 14.1579 38.0764 13.9357 39.1876 13.9357C40.1137 13.9357 40.799 14.1209 41.2435 14.4913C41.688 14.8617 41.9103 15.4915 41.9103 16.3805C40.3175 26.0857 39.095 33.0312 38.2431 37.217C37.4652 41.514 36.4465 45.1627 35.187 48.1632C33.9646 51.2007 31.9828 53.7381 29.2417 55.7754C26.5376 57.8128 22.8333 58.8315 18.1289 58.8315ZM23.2408 13.9912C22.1665 13.9912 21.3145 13.7319 20.6848 13.2133C20.0551 12.6577 19.7402 11.9354 19.7402 11.0463C19.7402 9.74984 20.1847 8.69412 21.0738 7.87918C21.9628 7.06424 23.0926 6.65677 24.4632 6.65677C25.5374 6.65677 26.3894 6.93459 27.0191 7.49023C27.6488 8.00883 27.9637 8.73116 27.9637 9.65723C27.9637 10.9167 27.5192 11.9539 26.6302 12.7688C25.7782 13.5838 24.6484 13.9912 23.2408 13.9912ZM64.8383 44.7737C63.4677 44.7737 62.3564 44.4033 61.5044 43.6625C60.6895 42.9216 60.1339 41.8844 59.8375 40.5509L62.1712 41.8844H57.6705L61.3378 33.1053C61.3378 34.9945 61.8008 36.4762 62.7269 37.5504C63.6529 38.6247 64.9679 39.1803 66.6719 39.2173H69.2279L68.3388 44.7737H64.8383ZM43.5017 63.6655C41.168 63.6655 39.4455 63.2581 38.3342 62.4431C37.2229 61.6282 36.6673 60.6836 36.6673 59.6094C40.4086 59.6094 43.3906 58.9796 45.6131 57.7202C47.8357 56.4978 49.5952 54.4234 50.8917 51.497C52.2252 48.5706 53.3365 44.4033 54.2256 38.9951C54.3737 38.1061 54.5034 37.2541 54.6145 36.4391C54.7627 35.5871 54.8923 34.7722 55.0034 33.9943C55.6702 29.9196 56.4481 24.9374 57.3371 19.0476L57.6705 21.7146L54.7256 16.2694C55.948 15.5285 57.0964 14.9543 58.1706 14.5469C59.2819 14.1394 60.245 13.9357 61.0599 13.9357C61.9119 13.9357 62.5972 14.1579 63.1158 14.6024C63.6344 15.0469 63.8937 15.5655 63.8937 16.1582C63.8937 16.5657 63.6159 18.5845 63.0602 22.2147C62.5046 25.8449 61.8564 29.9567 61.1155 34.55L60.5043 38.3283C59.6894 43.5513 58.6336 47.9965 57.3371 51.6637C56.0777 55.3309 54.3182 58.2388 52.0586 60.3873C49.836 62.5728 46.9837 63.6655 43.5017 63.6655ZM69.2834 39.2173C69.6909 39.2173 69.9317 39.4396 70.0058 39.8841C70.0798 40.3286 70.0428 41.0324 69.8946 41.9955C69.7465 42.8846 69.5427 43.5699 69.2834 44.0514C69.0612 44.533 68.7463 44.7737 68.3388 44.7737L69.2834 39.2173ZM69.2951 39.2173H77.852L75.8517 39.773C75.9258 37.9949 76.3147 34.6981 77.0186 29.8826C77.7594 25.067 78.6114 19.9366 79.5745 14.4913C79.9079 12.6392 80.2228 10.8796 80.5191 9.21272C80.8154 7.50875 81.0933 5.93444 81.3526 4.48977L82.3527 6.93459L78.6855 2.71172C79.5375 2.00791 80.5561 1.43374 81.7415 0.989233C82.9269 0.544719 84.0382 0.322462 85.0754 0.322462C86.0385 0.322462 86.7608 0.544719 87.2424 0.989233C87.7239 1.3967 87.9647 2.04495 87.9647 2.93397C87.9647 3.60074 87.798 4.82315 87.4646 6.6012C87.1312 8.37926 86.7423 10.324 86.2978 12.4354C85.0383 18.7327 84.0567 24.0483 83.3529 28.3823C82.6861 32.7163 82.3527 36.754 82.3527 40.4953L79.6301 44.7737H68.4061L69.2951 39.2173ZM68.4061 44.7737C67.9987 44.7737 67.7579 44.533 67.6838 44.0514C67.5727 43.6069 67.5912 42.9216 67.7394 41.9955C67.9246 41.0695 68.1283 40.3842 68.3506 39.9397C68.5728 39.4581 68.8877 39.2173 69.2951 39.2173L68.4061 44.7737ZM138.301 44.7737C136.93 44.7737 135.819 44.4033 134.967 43.6625C134.152 42.9216 133.578 41.8844 133.244 40.5509L135.578 41.8844H130.133L135.078 33.3831C135.078 35.1241 135.541 36.5317 136.467 37.606C137.393 38.6802 138.69 39.2173 140.356 39.2173H143.357L142.412 44.7737H138.301ZM115.13 44.7182C112.315 44.7182 110.241 44.3478 108.907 43.6069C107.574 42.866 106.907 41.7177 106.907 40.1619C106.907 39.347 107.055 38.532 107.351 37.7171C108.314 38.1246 109.315 38.4765 110.352 38.7728C111.426 39.0321 112.445 39.1618 113.408 39.1618H129.633L127.91 40.1064C127.873 39.1803 127.966 38.0875 128.188 36.8281C128.41 35.5316 128.725 33.9573 129.132 32.1051C129.614 29.8826 129.966 28.123 130.188 26.8265C130.41 25.53 130.522 24.3262 130.522 23.2149C130.522 20.5108 129.818 18.4549 128.41 17.0473C127.04 15.6026 125.262 14.8803 123.076 14.8803C120.853 14.8803 119.02 15.6211 117.575 17.1028C116.168 18.5475 115.39 20.5108 115.241 22.9926C111.574 22.9926 109.741 21.6406 109.741 18.9364C109.741 17.3066 110.315 15.7508 111.463 14.2691C112.648 12.7873 114.26 11.602 116.297 10.713C118.335 9.78688 120.576 9.32385 123.02 9.32385C125.762 9.32385 128.151 9.91653 130.188 11.1019C132.263 12.2502 133.855 13.8801 134.967 15.9915C136.115 18.103 136.689 20.5108 136.689 23.2149C136.689 24.6966 136.541 26.2709 136.245 27.9378C135.948 29.5677 135.541 31.5124 135.022 33.7721C134.726 35.0315 134.467 36.2354 134.244 37.3837C134.059 38.532 133.985 39.4025 134.022 39.9952L131.411 44.7182H115.13ZM143.357 39.2173C143.764 39.2173 144.005 39.4396 144.079 39.8841C144.153 40.3286 144.116 41.0324 143.968 41.9955C143.82 42.8846 143.616 43.5699 143.357 44.0514C143.135 44.533 142.82 44.7737 142.412 44.7737L143.357 39.2173ZM143.363 39.2173H184.924L184.258 40.1064C184.295 39.0692 184.387 37.7541 184.536 36.1613C184.684 34.161 184.758 32.6793 184.758 31.7162C184.758 30.4567 184.665 29.5307 184.48 28.938C184.295 28.3082 183.98 27.8823 183.535 27.66C183.128 27.4377 182.517 27.3266 181.702 27.3266H158.865C155.679 27.3266 153.216 26.3635 151.475 24.4373C149.734 22.5111 148.863 19.418 148.863 15.1581C148.863 13.3059 148.993 11.2871 149.252 9.10159C149.549 6.91607 149.845 5.19358 150.141 3.93413C150.919 4.11934 152.049 4.28603 153.531 4.43421C155.05 4.54533 156.846 4.6009 158.92 4.6009C161.513 4.6009 165.088 4.50829 169.644 4.32308C171.904 4.24899 174.127 4.17491 176.312 4.10082C178.498 4.02674 180.553 3.98969 182.48 3.98969C184.443 3.98969 185.925 4.06378 186.925 4.21195C187.962 4.36012 188.684 4.63794 189.092 5.04541C189.536 5.41584 189.759 6.00852 189.759 6.82346C189.759 8.08292 189.388 9.24976 188.647 10.324C187.462 10.1017 186.202 9.93505 184.869 9.82392C183.572 9.7128 182.035 9.65723 180.257 9.65723C178.961 9.65723 173.386 9.78688 163.532 10.0462C162.014 10.0832 160.532 10.1203 159.087 10.1573C157.68 10.1944 156.365 10.2314 155.142 10.2684L155.587 9.65723C155.401 10.3981 155.235 11.3797 155.087 12.6021C154.938 13.8245 154.864 14.9173 154.864 15.8804C154.864 17.8807 155.253 19.3624 156.031 20.3255C156.846 21.2887 157.994 21.7702 159.476 21.7702H182.813C185.591 21.7702 187.629 22.5296 188.925 24.0483C190.259 25.5671 190.925 28.0119 190.925 31.3828C190.925 32.0496 190.888 32.7904 190.814 33.6054C190.777 34.3833 190.722 35.1426 190.648 35.8835C190.425 37.8097 190.314 39.347 190.314 40.4953L187.536 44.7737H142.473L143.363 39.2173ZM142.473 44.7737C142.066 44.7737 141.825 44.533 141.751 44.0514C141.64 43.6069 141.659 42.9216 141.807 41.9955C141.992 41.0695 142.196 40.3842 142.418 39.9397C142.64 39.4581 142.955 39.2173 143.363 39.2173L142.473 44.7737Z" fill="white"/>
</svg>
